<?xml version="1.0" encoding="UTF-8"?>
<svg id="Layer_2" xmlns="http://www.w3.org/2000/svg" xmlns:xlink="http://www.w3.org/1999/xlink" viewBox="0 0 2000 2000">
  <defs>
    <style>
      .cls-1 {
        fill: url(#linear-gradient-2);
      }

      .cls-2 {
        fill: url(#linear-gradient);
      }
    </style>
    <linearGradient id="linear-gradient" x1="-178.87" y1="1786.08" x2="790.87" y2="1786.08" gradientTransform="translate(694 2606) scale(1 -1)" gradientUnits="userSpaceOnUse">
      <stop offset="0" stop-color="#00195b"/>
      <stop offset=".08" stop-color="#031b5d"/>
      <stop offset=".15" stop-color="#0d2463"/>
      <stop offset=".21" stop-color="#1e346e"/>
      <stop offset=".26" stop-color="#35497d"/>
      <stop offset=".32" stop-color="#546591"/>
      <stop offset=".37" stop-color="#7a87a9"/>
      <stop offset=".42" stop-color="#a7afc6"/>
      <stop offset=".47" stop-color="#d9dde7"/>
      <stop offset=".5" stop-color="#fff"/>
      <stop offset=".57" stop-color="#cad0dd"/>
      <stop offset=".66" stop-color="#8e99b6"/>
      <stop offset=".74" stop-color="#5b6b95"/>
      <stop offset=".82" stop-color="#33477c"/>
      <stop offset=".89" stop-color="#172e69"/>
      <stop offset=".95" stop-color="#061e5e"/>
      <stop offset="1" stop-color="#00195b"/>
    </linearGradient>
    <linearGradient id="linear-gradient-2" x1="134.82" y1="1040.68" x2="394.13" y2="1040.68" xlink:href="#linear-gradient"/>
  </defs>
  <g id="Layer_9">
    <g>
      <path class="cls-2" d="M1470.2,635.34v-.02l-16.51-85.43-28.69-148.35c-9.46-48.96-51.52-84.89-101.36-86.6l-256-8.76-56.49-1.93.13.14c-4.01-.09-8.07-.14-12.11-.14-4.75,0-9.48.06-14.2.19-.02.02-.02.03-.03.05-251.19,7.24-454.24,186.55-469.01,411.59-.44,6.44-.7,12.93-.8,19.46,2.18,72.64,61.77,130.83,134.92,130.83,34.05,0,65.12-12.58,88.86-33.41.06-.06.13-.11.19-.17-.03-.08-.08-.16-.09-.24,24.84-21.73,41.6-52.46,45.28-87.1.13-1.11.22-2.24.31-3.37.09-1.18.17-2.33.23-3.51.06-1.22.11-2.43.14-3.65.03-1.18.05-2.37.05-3.54,0-1.54-.03-3.06-.08-4.58-.34-10.39-1.85-20.46-4.45-30.13v-.02c-.36-1.08-.69-2.16-1.02-3.26-.02-.03-.03-.08-.03-.11-.33-1.08-.63-2.18-.91-3.27,0-.05-.03-.08-.03-.13-.09-.3-.17-.61-.25-.92-2.43-9.5-3.87-19.38-4.18-29.57-.06-1.38-.08-2.76-.08-4.15,0-5.17.3-10.28.88-15.31,4.03-35.77,22.05-67.31,48.46-89.03.11-.09.22-.19.35-.28,3.7-3.02,7.57-5.86,11.59-8.48.09-.06.16-.11.24-.16,24.18-16.83,50.99-30.33,79.35-39.55.05-.17.08-.36.13-.53,27.01-8.63,55.4-13.35,84.19-13.35,13.51,0,26.78.86,39.77,2.52,136.55,17.42,241.6,123.31,241.6,251.34,0,89.44-51.27,168.08-128.75,213.28-43.95,25.67-96.36,40.57-152.61,40.57-1.21,0-2.41,0-3.65-.02-31.64-.14-65.75-1.5-101.97-4.72-3.71-.33-7.4-.67-11.06-1.03-.02-.05-.02-.11-.02-.16-5.5-.55-10.94-1.11-16.31-1.72-32.92-3.71-61.44,22.72-60.31,55.83,1.14,33.59,2.3,67.19,3.45,100.77,2.18,63.36,4.32,126.73,6.5,190.08,41.11.16,82.2.25,123.3.28h1.57c6.17.02,12.32.02,18.49.02h1.54c84.61,0,153.71-67.55,155.79-152.11l.08-2.74c.17-7.69,5.52-14.27,12.99-16.14,39.67-9.95,77.29-24.33,112.17-42.51,53.7-27.98,100.89-64.96,139.08-108.66,65.17-74.57,104.04-168.69,104.04-271.01,0-36.95-5.08-72.83-14.63-107.1l-.04.02ZM1329.12,470.44c-.27.02-.52.02-.78.02-32.09,0-58.1-26.01-58.1-58.1s26.01-58.1,58.1-58.1c.27,0,.52,0,.78.02.27-.02.52-.02.78-.02,32.07,0,58.08,26.01,58.08,58.1s-26.01,58.1-58.08,58.1c-.27,0-.52,0-.78-.02h0Z"/>
      <path class="cls-1" d="M1088.12,1565.32c0,25.27-7.19,48.89-19.66,68.86.27.41.53.81.8,1.22-20.92,32.78-56.09,55.59-96.77,59.68-4.36.44-8.77.67-13.24.67h-85.19c-24.99,0-45.24-20.26-45.24-45.25v-85.19c0-3.27.11-6.52.36-9.73,4.98-67.5,61.31-120.7,130.07-120.7,4.4,0,8.74.22,13.04.64.02.06.05.13.06.19,65.14,7.29,115.78,62.52,115.78,129.6h-.01Z"/>
    </g>
  </g>
</svg>