<?xml version="1.0" encoding="UTF-8"?>
<svg id="Layer_4" xmlns="http://www.w3.org/2000/svg" viewBox="0 0 2000 2000">
  <defs>
    <style>
      .cls-1 {
        fill: #ffdc18;
      }

      .cls-2 {
        fill: none;
      }

      .cls-3 {
        opacity: .1;
      }
    </style>
  </defs>
  <g class="cls-3">
    <path class="cls-1" d="M1436.52,1713.1c-.3,20.74,1.92,43.11,7.89,64.74,3.86,13.98.85,21.11-12.71,27.79-44.26,21.83-89.77,40.27-136.34,56.47-13.35,4.64-20.22,2.66-28.55-9.74-53.16-79.18-124.95-132.24-220.73-146.51-104.57-15.58-189.71,24.94-262.11,97.51-15.31,15.35-29.48,32.08-39.83,51.1-6.72,12.35-13.81,12-25.17,8.14-45.26-15.38-89.24-33.66-132.55-53.89-16.97-7.92-21.58-16.65-17.48-35.65,30.09-139.46-45.5-274.75-178.91-322.01-49.98-17.7-101.14-18.4-152.28-6.69-15.97,3.66-23.5.58-30.99-14.5-21.6-43.53-39.51-88.41-55.51-134.2-4.65-13.3-2.21-20.36,10.09-28.6,77.79-52.17,129.81-122.69,146.23-216.24,16.53-94.14-16.86-171.53-83.74-236.41-19.86-19.27-41.76-36.24-65.79-50.08-9.31-5.36-11.66-10.51-8.06-21.37,16.44-49.66,35.85-97.97,60.1-144.36,4.66-8.92,8.49-13.32,20.31-10.37,160.69,40.15,332.35-118.34,344.16-247.69,3.22-35.28,2.54-70.17-5.9-104.54-3.34-13.62-1.25-21.15,12.56-28.01,43.51-21.6,88.17-40,134.12-55.7,14.73-5.03,22.3-3.18,31.98,10.67,65.06,93.07,151.97,150.78,268.61,147.35,107.9-3.17,188.8-59.09,249.13-145.92,9.78-14.08,16.85-17.99,33.49-12.12,45.78,16.14,90.55,34.26,134.03,55.93,12.52,6.24,15.22,12.94,12.63,26.01-30.42,153.87,54.18,297.38,203.49,346.59,43.55,14.35,87.73,18.02,132.36,7.76,13.17-3.03,18.21.62,23.77,11.78,22.36,44.82,40.94,91.09,57.4,138.35,4.8,13.8,1.82,20.39-10.54,28.21-65.5,41.43-118.36,94.69-139.62,171.35-28.29,102.06,3.49,188.15,77.28,260.7,19.2,18.88,40.43,35.65,63.83,48.98,11.68,6.65,12.95,13.71,9,25.38-16.32,48.11-35.79,94.83-58.12,140.46-5.78,11.81-11.75,13.83-24.15,10.8-160.77-39.39-352.88,128.39-343.4,288.53ZM1006.53,566.61c-242.98.01-439.78,195.71-439.92,437.45-.14,246.12,194.88,442.72,439.21,442.79,244.34.06,440.92-195.48,441.01-438.69.09-245.65-195.27-441.56-440.31-441.55Z"/>
  </g>
  <rect class="cls-2" x="-150" y="-150" width="2300" height="2300"/>
</svg>